<?xml version="1.0" standalone="no"?>
<!DOCTYPE svg PUBLIC "-//W3C//DTD SVG 20010904//EN"
 "http://www.w3.org/TR/2001/REC-SVG-20010904/DTD/svg10.dtd">
<svg version="1.0" xmlns="http://www.w3.org/2000/svg"
 width="512.000000pt" height="512.000000pt" viewBox="0 0 512.000000 512.000000"
 preserveAspectRatio="xMidYMid meet">

<g transform="translate(0.000000,512.000000) scale(0.100000,-0.100000)"
fill="#000000" stroke="none">
<path d="M2520 5107 c-15 -7 -103 -124 -212 -282 -281 -405 -308 -446 -308
-472 0 -31 51 -83 82 -83 13 0 33 7 45 15 12 8 106 138 209 288 103 149 195
282 204 294 17 21 19 18 166 -195 82 -119 150 -219 152 -223 2 -4 -35 -9 -82
-10 -73 -3 -89 -7 -108 -27 l-23 -23 -3 -469 -3 -470 -84 0 -84 0 -3 470 -3
469 -22 23 c-30 30 -86 30 -116 0 l-22 -23 -3 -525 -3 -525 30 -30 29 -29 197
0 197 0 29 29 29 29 0 466 0 466 115 0 c63 0 125 5 139 11 33 15 53 63 39 98
-14 39 -460 681 -494 714 -32 30 -51 33 -89 14z"/>
<path d="M4358 4183 c-14 -16 -129 -179 -257 -364 -197 -287 -231 -342 -231
-373 0 -49 28 -76 79 -76 49 0 38 -14 276 332 145 211 193 274 202 265 6 -7
77 -106 156 -222 l145 -210 -90 -5 c-139 -8 -128 35 -128 -496 l0 -444 -90 0
-90 0 0 444 0 443 -26 27 c-34 33 -74 34 -111 2 l-28 -24 -3 -486 c-3 -530 -2
-545 53 -566 15 -6 107 -10 206 -10 187 0 228 8 243 45 3 9 6 214 6 455 l0
438 124 4 c116 3 126 5 150 27 37 35 34 77 -11 142 -279 409 -458 661 -473
669 -34 18 -75 12 -102 -17z"/>
<path d="M675 3600 c-11 -4 -29 -18 -41 -31 -24 -28 -455 -653 -473 -686 -39
-76 46 -158 114 -109 11 8 110 145 220 305 110 160 204 289 208 288 4 -1 75
-99 157 -217 l148 -215 -86 -6 c-77 -6 -88 -9 -109 -33 l-23 -27 0 -815 0
-814 -85 0 -85 0 0 793 c0 516 -4 805 -10 829 -18 62 -89 81 -136 37 l-24 -22
0 -872 c0 -867 0 -872 21 -899 l20 -26 207 0 c223 1 232 3 252 54 6 18 10 298
10 827 l0 799 119 0 c103 0 122 3 144 20 32 26 41 63 23 98 -8 15 -121 182
-251 370 -252 364 -262 376 -320 352z"/>
<path d="M2395 2893 c-47 -7 -155 -39 -212 -62 -187 -74 -278 -143 -535 -405
-195 -198 -218 -224 -218 -254 0 -43 38 -82 79 -82 38 0 139 87 264 226 204
227 359 333 587 399 91 27 278 27 380 1 200 -51 352 -144 520 -320 179 -187
277 -281 378 -358 51 -39 89 -74 85 -78 -4 -3 -44 -33 -88 -65 -44 -33 -179
-159 -300 -281 -235 -236 -296 -283 -452 -348 -112 -47 -205 -66 -328 -66
-127 0 -218 19 -336 69 -149 65 -217 118 -449 351 -217 218 -342 323 -471 394
-75 41 -96 44 -132 16 -54 -43 -42 -106 29 -148 143 -84 228 -155 444 -372
231 -232 307 -293 460 -370 256 -129 538 -145 807 -44 200 75 299 148 543 397
191 195 323 307 443 376 130 74 118 125 -57 235 -116 72 -233 175 -407 357
-195 205 -306 288 -477 360 -148 61 -194 70 -367 74 -88 2 -173 1 -190 -2z"/>
<path d="M2452 2539 c-109 -18 -160 -59 -147 -118 13 -59 56 -77 135 -56 331
89 620 -227 500 -547 -39 -106 -132 -197 -243 -240 -64 -25 -199 -28 -268 -6
-73 24 -157 86 -205 150 -59 80 -78 143 -79 253 0 84 3 96 38 169 42 88 46
127 17 156 -68 68 -144 7 -198 -160 -31 -95 -34 -235 -8 -324 61 -205 214
-358 413 -412 75 -20 222 -19 297 1 134 36 265 131 339 246 149 234 118 530
-77 724 -141 139 -319 196 -514 164z"/>
<path d="M4213 2226 c-48 -22 -55 -60 -51 -284 l3 -194 28 -24 c28 -24 31 -24
228 -24 199 0 200 0 224 25 l25 24 0 219 0 219 -26 24 c-25 23 -30 24 -212 26
-144 2 -194 0 -219 -11z m297 -256 l0 -100 -90 0 -90 0 0 100 0 100 90 0 90 0
0 -100z"/>
<path d="M2520 2067 c-31 -16 -50 -52 -50 -99 0 -75 31 -117 86 -118 59 0 91
53 81 137 -8 70 -63 108 -117 80z"/>
<path d="M4192 1487 c-30 -32 -29 -87 1 -115 22 -21 32 -22 228 -22 202 0 206
0 227 23 30 32 29 81 -3 112 -24 25 -25 25 -228 25 -200 0 -204 0 -225 -23z"/>
<path d="M476 865 l-26 -24 0 -219 0 -219 26 -24 c25 -23 30 -24 214 -27 280
-5 274 -12 268 296 l-3 194 -28 24 c-28 24 -31 24 -226 24 -196 0 -198 0 -225
-25z m314 -245 l0 -100 -85 0 -85 0 0 100 0 100 85 0 85 0 0 -100z"/>
<path d="M510 163 c-52 -19 -77 -85 -47 -124 27 -35 54 -39 245 -39 173 0 191
2 214 20 50 39 37 118 -22 139 -33 11 -361 15 -390 4z"/>
</g>
</svg>
